<?xml version="1.0" encoding="UTF-8"?>
<svg xmlns="http://www.w3.org/2000/svg" xmlns:xlink="http://www.w3.org/1999/xlink" width="1130px" height="320px" viewBox="0 0 1130 320" version="1.1">
<defs>
<linearGradient id="linear0" gradientUnits="userSpaceOnUse" x1="0" y1="32" x2="32" y2="0" gradientTransform="matrix(10,0,0,10,0,0)">
<stop offset="0" style="stop-color:rgb(14.901961%,65.490196%,46.666667%);stop-opacity:1;"/>
<stop offset="1" style="stop-color:rgb(4.313725%,27.45098%,20.392157%);stop-opacity:1;"/>
</linearGradient>
</defs>
<g id="surface1">
<path style=" stroke:none;fill-rule:nonzero;fill:url(#linear0);" d="M 0 320 L 0 0 L 320 0 L 320 320 Z M 31.507812 288.503906 L 66.75 288.503906 L 66.75 281.996094 L 38.003906 281.996094 L 38.003906 253.25 L 31.507812 253.25 Z M 253.25 288.503906 L 288.503906 288.503906 L 288.503906 253.25 L 282.007812 253.25 L 282.007812 281.996094 L 253.25 281.996094 Z M 259.09375 263.75 C 261.671875 263.75 263.75 261.671875 263.75 259.09375 C 263.75 239.273438 263.75 80.726562 263.75 60.90625 C 263.75 58.328125 261.671875 56.25 259.09375 56.25 C 239.273438 56.25 80.734375 56.25 60.917969 56.25 C 58.328125 56.25 56.25 58.328125 56.25 60.90625 C 56.25 80.726562 56.25 239.273438 56.25 259.09375 C 56.25 261.671875 58.328125 263.75 60.917969 263.75 C 100.550781 263.75 239.273438 263.75 259.09375 263.75 Z M 96.253906 257.253906 L 96.253906 230.25 L 123.257812 230.25 L 123.257812 257.253906 Z M 163.253906 257.253906 L 163.253906 230.25 L 190.257812 230.25 L 190.257812 257.253906 Z M 230.25 257.253906 L 230.25 230.25 L 257.253906 230.25 L 257.253906 257.253906 Z M 62.753906 223.746094 L 62.753906 196.753906 L 89.75 196.753906 L 89.75 223.746094 Z M 129.753906 223.746094 L 129.753906 196.753906 L 156.757812 196.753906 L 156.757812 223.746094 Z M 196.753906 223.746094 L 196.753906 196.753906 L 223.753906 196.753906 L 223.753906 223.746094 Z M 96.253906 190.246094 L 96.253906 163.253906 L 123.257812 163.253906 L 123.257812 190.246094 Z M 163.253906 190.246094 L 163.253906 163.253906 L 190.257812 163.253906 L 190.257812 190.246094 Z M 230.25 190.246094 L 230.25 163.253906 L 257.253906 163.253906 L 257.253906 190.246094 Z M 62.753906 156.746094 L 62.753906 129.753906 L 89.75 129.753906 L 89.75 156.746094 Z M 129.753906 156.746094 L 129.753906 129.753906 L 156.757812 129.753906 L 156.757812 156.746094 Z M 196.753906 156.746094 L 196.753906 129.753906 L 223.753906 129.753906 L 223.753906 156.746094 Z M 96.253906 123.246094 L 96.253906 96.246094 L 123.257812 96.246094 L 123.257812 123.246094 Z M 163.253906 123.246094 L 163.253906 96.246094 L 190.257812 96.246094 L 190.257812 123.246094 Z M 230.25 123.246094 L 230.25 96.246094 L 257.253906 96.246094 L 257.253906 123.246094 Z M 62.753906 89.75 L 62.753906 62.746094 L 89.75 62.746094 L 89.75 89.75 Z M 129.753906 89.75 L 129.753906 62.746094 L 156.757812 62.746094 L 156.757812 89.75 Z M 196.753906 89.75 L 196.753906 62.746094 L 223.753906 62.746094 L 223.753906 89.75 Z M 31.507812 66.75 L 38.003906 66.75 L 38.003906 38.003906 L 66.75 38.003906 L 66.75 31.496094 L 31.507812 31.496094 Z M 282.007812 66.75 L 288.503906 66.75 L 288.503906 31.496094 L 253.25 31.496094 L 253.25 38.003906 L 282.007812 38.003906 Z M 282.007812 66.75 "/>
<path style=" stroke:none;fill-rule:nonzero;fill:rgb(12.156863%,12.156863%,14.509804%);fill-opacity:1;" d="M 501.996094 184.488281 C 502.761719 184.488281 503.53125 184.640625 504.296875 184.949219 C 505.066406 185.199219 505.800781 185.660156 506.503906 186.34375 L 519.363281 199.425781 C 513.734375 206.539062 506.664062 211.921875 498.15625 215.574219 C 489.714844 219.160156 479.703125 220.953125 468.125 220.953125 C 457.507812 220.953125 447.976562 219.222656 439.53125 215.757812 C 431.152344 212.234375 424.019531 207.40625 418.136719 201.28125 C 412.3125 195.097656 407.835938 187.796875 404.703125 179.382812 C 401.566406 170.90625 400 161.722656 400 151.824219 C 400 141.738281 401.695312 132.492188 405.085938 124.078125 C 408.476562 115.601562 413.242188 108.300781 419.382812 102.179688 C 425.523438 96.054688 432.878906 91.289062 441.449219 87.886719 C 450.023438 84.484375 459.457031 82.785156 469.757812 82.785156 C 475 82.785156 479.925781 83.246094 484.53125 84.175781 C 489.203125 85.042969 493.550781 86.277344 497.582031 87.886719 C 501.609375 89.433594 505.320312 91.320312 508.710938 93.546875 C 512.101562 95.773438 515.109375 98.1875 517.730469 100.785156 L 506.792969 114.984375 C 506.089844 115.851562 505.257812 116.652344 504.296875 117.394531 C 503.339844 118.078125 501.996094 118.417969 500.269531 118.417969 C 499.117188 118.417969 498.027344 118.171875 497.007812 117.675781 C 495.980469 117.179688 494.894531 116.59375 493.742188 115.910156 C 492.59375 115.167969 491.3125 114.394531 489.90625 113.59375 C 488.5625 112.726562 486.929688 111.953125 485.011719 111.273438 C 483.15625 110.527344 480.949219 109.910156 478.390625 109.414062 C 475.894531 108.921875 472.953125 108.675781 469.5625 108.675781 C 464.191406 108.675781 459.265625 109.632812 454.785156 111.550781 C 450.375 113.46875 446.535156 116.28125 443.273438 119.996094 C 440.074219 123.644531 437.578125 128.160156 435.789062 133.542969 C 434.0625 138.863281 433.199219 144.957031 433.199219 151.824219 C 433.199219 158.753906 434.15625 164.90625 436.078125 170.289062 C 438.058594 175.671875 440.714844 180.21875 444.039062 183.929688 C 447.429688 187.578125 451.363281 190.363281 455.84375 192.28125 C 460.320312 194.199219 465.117188 195.15625 470.234375 195.15625 C 473.179688 195.15625 475.863281 195.035156 478.296875 194.785156 C 480.726562 194.476562 482.996094 194.015625 485.109375 193.394531 C 487.21875 192.714844 489.203125 191.847656 491.058594 190.796875 C 492.910156 189.683594 494.800781 188.289062 496.71875 186.621094 C 497.484375 186.003906 498.316406 185.507812 499.210938 185.136719 C 500.109375 184.703125 501.035156 184.488281 501.996094 184.488281 Z M 501.996094 184.488281 "/>
<path style=" stroke:none;fill-rule:nonzero;fill:rgb(12.156863%,12.156863%,14.509804%);fill-opacity:1;" d="M 559.996094 131.6875 C 563.578125 128.71875 567.449219 126.335938 571.605469 124.539062 C 575.828125 122.6875 580.851562 121.757812 586.671875 121.757812 C 592.109375 121.757812 596.90625 122.6875 601.0625 124.539062 C 605.285156 126.335938 608.835938 128.871094 611.714844 132.152344 C 614.59375 135.367188 616.765625 139.234375 618.238281 143.75 C 619.710938 148.203125 620.445312 153.058594 620.445312 158.320312 L 620.445312 219.472656 L 590.699219 219.472656 L 590.699219 158.320312 C 590.699219 153.617188 589.582031 149.96875 587.34375 147.367188 C 585.105469 144.710938 581.808594 143.378906 577.460938 143.378906 C 574.195312 143.378906 571.128906 144.058594 568.246094 145.421875 C 565.433594 146.71875 562.683594 148.511719 559.996094 150.800781 L 559.996094 219.472656 L 530.253906 219.472656 L 530.253906 80.558594 L 559.996094 80.558594 Z M 559.996094 131.6875 "/>
<path style=" stroke:none;fill-rule:nonzero;fill:rgb(12.156863%,12.156863%,14.509804%);fill-opacity:1;" d="M 701.582031 159.804688 C 701.582031 157.515625 701.261719 155.285156 700.625 153.121094 C 700.046875 150.957031 699.054688 149.039062 697.648438 147.367188 C 696.304688 145.636719 694.515625 144.246094 692.277344 143.191406 C 690.035156 142.140625 687.316406 141.617188 684.121094 141.617188 C 678.492188 141.617188 674.078125 143.191406 670.878906 146.347656 C 667.679688 149.441406 665.570312 153.925781 664.546875 159.804688 Z M 664.164062 176.507812 C 665.121094 184.550781 667.648438 190.394531 671.742188 194.046875 C 675.835938 197.632812 681.113281 199.425781 687.574219 199.425781 C 691.027344 199.425781 694.003906 199.023438 696.496094 198.222656 C 698.992188 197.414062 701.199219 196.519531 703.117188 195.527344 C 705.101562 194.539062 706.890625 193.644531 708.492188 192.839844 C 710.15625 192.035156 711.882812 191.632812 713.671875 191.632812 C 716.039062 191.632812 717.832031 192.46875 719.046875 194.136719 L 727.679688 204.4375 C 724.609375 207.839844 721.285156 210.625 717.703125 212.789062 C 714.183594 214.894531 710.539062 216.5625 706.765625 217.800781 C 703.054688 218.976562 699.3125 219.78125 695.539062 220.214844 C 691.828125 220.707031 688.277344 220.953125 684.886719 220.953125 C 677.914062 220.953125 671.359375 219.871094 665.21875 217.707031 C 659.140625 215.480469 653.800781 212.203125 649.195312 207.871094 C 644.652344 203.539062 641.039062 198.160156 638.351562 191.726562 C 635.730469 185.289062 634.417969 177.804688 634.417969 169.269531 C 634.417969 162.835938 635.535156 156.742188 637.777344 150.988281 C 640.078125 145.234375 643.339844 140.191406 647.5625 135.863281 C 651.847656 131.53125 656.996094 128.097656 663.011719 125.5625 C 669.089844 123.027344 675.933594 121.757812 683.542969 121.757812 C 690.132812 121.757812 696.144531 122.746094 701.582031 124.726562 C 707.085938 126.707031 711.785156 129.582031 715.6875 133.355469 C 719.652344 137.132812 722.722656 141.769531 724.898438 147.277344 C 727.136719 152.71875 728.257812 158.90625 728.257812 165.835938 C 728.257812 168 728.160156 169.761719 727.96875 171.125 C 727.777344 172.484375 727.425781 173.566406 726.914062 174.371094 C 726.402344 175.175781 725.699219 175.734375 724.804688 176.042969 C 723.972656 176.351562 722.882812 176.507812 721.539062 176.507812 Z M 664.164062 176.507812 "/>
<path style=" stroke:none;fill-rule:nonzero;fill:rgb(12.156863%,12.156863%,14.509804%);fill-opacity:1;" d="M 806.371094 144.308594 C 805.605469 145.480469 804.773438 146.316406 803.878906 146.8125 C 803.046875 147.308594 801.960938 147.554688 800.617188 147.554688 C 799.207031 147.554688 797.800781 147.277344 796.394531 146.71875 C 794.984375 146.101562 793.449219 145.449219 791.789062 144.769531 C 790.1875 144.089844 788.367188 143.472656 786.320312 142.914062 C 784.273438 142.296875 781.9375 141.988281 779.316406 141.988281 C 775.539062 141.988281 772.628906 142.699219 770.582031 144.121094 C 768.601562 145.480469 767.609375 147.398438 767.609375 149.875 C 767.609375 151.667969 768.246094 153.152344 769.527344 154.328125 C 770.871094 155.503906 772.628906 156.554688 774.804688 157.484375 C 776.980469 158.351562 779.441406 159.183594 782.191406 159.988281 C 784.945312 160.792969 787.757812 161.691406 790.636719 162.679688 C 793.515625 163.671875 796.328125 164.84375 799.078125 166.207031 C 801.832031 167.503906 804.292969 169.144531 806.46875 171.125 C 808.644531 173.042969 810.371094 175.394531 811.648438 178.175781 C 812.992188 180.960938 813.664062 184.300781 813.664062 188.199219 C 813.664062 192.960938 812.769531 197.355469 810.976562 201.375 C 809.1875 205.398438 806.5 208.859375 802.917969 211.769531 C 799.398438 214.675781 795.019531 216.933594 789.773438 218.542969 C 784.59375 220.152344 778.609375 220.953125 771.828125 220.953125 C 768.441406 220.953125 765.050781 220.644531 761.660156 220.027344 C 758.269531 219.410156 754.976562 218.574219 751.777344 217.523438 C 748.644531 216.46875 745.730469 215.234375 743.046875 213.808594 C 740.359375 212.324219 738.054688 210.746094 736.136719 209.078125 L 743.046875 198.5 C 743.8125 197.261719 744.773438 196.304688 745.925781 195.621094 C 747.140625 194.878906 748.675781 194.507812 750.53125 194.507812 C 752.257812 194.507812 753.792969 194.878906 755.136719 195.621094 C 756.542969 196.363281 758.046875 197.167969 759.644531 198.035156 C 761.242188 198.902344 763.097656 199.703125 765.210938 200.449219 C 767.386719 201.191406 770.101562 201.5625 773.367188 201.5625 C 775.667969 201.5625 777.617188 201.34375 779.21875 200.910156 C 780.816406 200.417969 782.097656 199.765625 783.058594 198.964844 C 784.015625 198.160156 784.71875 197.261719 785.167969 196.273438 C 785.613281 195.28125 785.839844 194.261719 785.839844 193.210938 C 785.839844 191.292969 785.167969 189.714844 783.824219 188.476562 C 782.480469 187.238281 780.722656 186.1875 778.546875 185.320312 C 776.371094 184.394531 773.878906 183.558594 771.0625 182.816406 C 768.3125 182.011719 765.496094 181.113281 762.617188 180.125 C 759.742188 179.136719 756.894531 177.960938 754.078125 176.597656 C 751.328125 175.175781 748.867188 173.414062 746.691406 171.308594 C 744.515625 169.144531 742.757812 166.515625 741.414062 163.421875 C 740.070312 160.328125 739.398438 156.585938 739.398438 152.195312 C 739.398438 148.109375 740.199219 144.246094 741.796875 140.59375 C 743.460938 136.882812 745.925781 133.636719 749.1875 130.851562 C 752.449219 128.066406 756.542969 125.871094 761.46875 124.261719 C 766.394531 122.59375 772.148438 121.757812 778.738281 121.757812 C 782.320312 121.757812 785.773438 122.066406 789.101562 122.6875 C 792.492188 123.304688 795.65625 124.171875 798.601562 125.285156 C 801.542969 126.398438 804.230469 127.726562 806.660156 129.273438 C 809.089844 130.757812 811.234375 132.398438 813.089844 134.191406 Z M 806.371094 144.308594 "/>
<path style=" stroke:none;fill-rule:nonzero;fill:rgb(12.156863%,12.156863%,14.509804%);fill-opacity:1;" d="M 891.828125 144.308594 C 891.058594 145.480469 890.230469 146.316406 889.332031 146.8125 C 888.503906 147.308594 887.414062 147.554688 886.070312 147.554688 C 884.664062 147.554688 883.257812 147.277344 881.847656 146.71875 C 880.441406 146.101562 878.90625 145.449219 877.242188 144.769531 C 875.644531 144.089844 873.820312 143.472656 871.773438 142.914062 C 869.726562 142.296875 867.394531 141.988281 864.769531 141.988281 C 860.996094 141.988281 858.085938 142.699219 856.039062 144.121094 C 854.054688 145.480469 853.0625 147.398438 853.0625 149.875 C 853.0625 151.667969 853.703125 153.152344 854.984375 154.328125 C 856.328125 155.503906 858.085938 156.554688 860.261719 157.484375 C 862.433594 158.351562 864.898438 159.183594 867.648438 159.988281 C 870.398438 160.792969 873.214844 161.691406 876.09375 162.679688 C 878.972656 163.671875 881.785156 164.84375 884.535156 166.207031 C 887.285156 167.503906 889.75 169.144531 891.925781 171.125 C 894.097656 173.042969 895.824219 175.394531 897.105469 178.175781 C 898.449219 180.960938 899.121094 184.300781 899.121094 188.199219 C 899.121094 192.960938 898.226562 197.355469 896.433594 201.375 C 894.644531 205.398438 891.957031 208.859375 888.375 211.769531 C 884.855469 214.675781 880.472656 216.933594 875.230469 218.542969 C 870.046875 220.152344 864.066406 220.953125 857.285156 220.953125 C 853.894531 220.953125 850.507812 220.644531 847.113281 220.027344 C 843.726562 219.410156 840.429688 218.574219 837.230469 217.523438 C 834.097656 216.46875 831.1875 215.234375 828.5 213.808594 C 825.8125 212.324219 823.511719 210.746094 821.59375 209.078125 L 828.5 198.5 C 829.269531 197.261719 830.226562 196.304688 831.378906 195.621094 C 832.59375 194.878906 834.128906 194.507812 835.984375 194.507812 C 837.710938 194.507812 839.246094 194.878906 840.589844 195.621094 C 841.996094 196.363281 843.5 197.167969 845.101562 198.035156 C 846.699219 198.902344 848.554688 199.703125 850.664062 200.449219 C 852.839844 201.191406 855.558594 201.5625 858.820312 201.5625 C 861.125 201.5625 863.074219 201.34375 864.675781 200.910156 C 866.273438 200.417969 867.554688 199.765625 868.511719 198.964844 C 869.472656 198.160156 870.175781 197.261719 870.621094 196.273438 C 871.070312 195.28125 871.296875 194.261719 871.296875 193.210938 C 871.296875 191.292969 870.621094 189.714844 869.28125 188.476562 C 867.9375 187.238281 866.175781 186.1875 864.003906 185.320312 C 861.828125 184.394531 859.332031 183.558594 856.519531 182.816406 C 853.769531 182.011719 850.953125 181.113281 848.074219 180.125 C 845.195312 179.136719 842.351562 177.960938 839.535156 176.597656 C 836.785156 175.175781 834.320312 173.414062 832.148438 171.308594 C 829.972656 169.144531 828.214844 166.515625 826.871094 163.421875 C 825.527344 160.328125 824.855469 156.585938 824.855469 152.195312 C 824.855469 148.109375 825.652344 144.246094 827.253906 140.59375 C 828.917969 136.882812 831.378906 133.636719 834.640625 130.851562 C 837.902344 128.066406 841.996094 125.871094 846.921875 124.261719 C 851.847656 122.59375 857.605469 121.757812 864.195312 121.757812 C 867.777344 121.757812 871.230469 122.066406 874.558594 122.6875 C 877.945312 123.304688 881.113281 124.171875 884.054688 125.285156 C 887 126.398438 889.683594 127.726562 892.117188 129.273438 C 894.546875 130.757812 896.6875 132.398438 898.546875 134.191406 Z M 891.828125 144.308594 "/>
<path style=" stroke:none;fill-rule:nonzero;fill:rgb(12.156863%,12.156863%,14.509804%);fill-opacity:1;" d="M 944.46875 123.242188 L 944.46875 219.472656 L 914.722656 219.472656 L 914.722656 123.242188 Z M 947.539062 96.886719 C 947.539062 99.175781 947.058594 101.34375 946.101562 103.382812 C 945.140625 105.363281 943.828125 107.128906 942.164062 108.675781 C 940.503906 110.15625 938.550781 111.363281 936.3125 112.292969 C 934.136719 113.160156 931.804688 113.59375 929.308594 113.59375 C 926.878906 113.59375 924.605469 113.160156 922.496094 112.292969 C 920.386719 111.363281 918.496094 110.15625 916.835938 108.675781 C 915.234375 107.128906 913.957031 105.363281 912.996094 103.382812 C 912.101562 101.34375 911.652344 99.175781 911.652344 96.886719 C 911.652344 94.539062 912.101562 92.339844 912.996094 90.300781 C 913.957031 88.257812 915.234375 86.464844 916.835938 84.917969 C 918.496094 83.371094 920.386719 82.164062 922.496094 81.300781 C 924.605469 80.433594 926.878906 80 929.308594 80 C 931.804688 80 934.136719 80.433594 936.3125 81.300781 C 938.550781 82.164062 940.503906 83.371094 942.164062 84.917969 C 943.828125 86.464844 945.140625 88.257812 946.101562 90.300781 C 947.058594 92.339844 947.539062 94.539062 947.539062 96.886719 Z M 947.539062 96.886719 "/>
<path style=" stroke:none;fill-rule:nonzero;fill:rgb(12.156863%,12.156863%,14.509804%);fill-opacity:1;" d="M 972.789062 219.472656 L 972.789062 143.007812 L 966.265625 141.710938 C 964.023438 141.214844 962.203125 140.441406 960.796875 139.390625 C 959.453125 138.335938 958.78125 136.789062 958.78125 134.75 L 958.78125 123.429688 L 972.789062 123.429688 L 972.789062 117.953125 C 972.789062 112.445312 973.683594 107.46875 975.476562 103.011719 C 977.332031 98.558594 979.953125 94.753906 983.34375 91.597656 C 986.796875 88.445312 990.988281 86 995.914062 84.269531 C 1000.839844 82.535156 1006.441406 81.671875 1012.699219 81.671875 C 1015.128906 81.671875 1017.371094 81.824219 1019.421875 82.132812 C 1021.46875 82.382812 1023.609375 82.816406 1025.851562 83.433594 L 1025.269531 97.445312 C 1025.210938 98.433594 1024.949219 99.269531 1024.511719 99.949219 C 1024.058594 100.570312 1023.449219 101.09375 1022.679688 101.527344 C 1021.980469 101.898438 1021.210938 102.179688 1020.378906 102.363281 C 1019.550781 102.550781 1018.71875 102.640625 1017.890625 102.640625 C 1015.261719 102.640625 1012.929688 102.890625 1010.878906 103.382812 C 1008.828125 103.878906 1007.109375 104.777344 1005.699219 106.074219 C 1004.359375 107.3125 1003.328125 108.984375 1002.628906 111.085938 C 1001.929688 113.128906 1001.570312 115.726562 1001.570312 118.882812 L 1001.570312 123.429688 L 1024.890625 123.429688 L 1024.890625 143.101562 L 1002.53125 143.101562 L 1002.53125 219.472656 Z M 972.789062 219.472656 "/>
<path style=" stroke:none;fill-rule:nonzero;fill:rgb(12.156863%,12.156863%,14.509804%);fill-opacity:1;" d="M 1130 123.242188 L 1076.839844 244.433594 C 1075.949219 246.351562 1074.859375 247.742188 1073.578125 248.609375 C 1072.300781 249.535156 1070.261719 250 1067.441406 250 L 1045.179688 250 L 1064.371094 211.027344 L 1024.648438 123.242188 L 1050.941406 123.242188 C 1053.238281 123.242188 1055 123.738281 1056.210938 124.726562 C 1057.488281 125.71875 1058.421875 126.890625 1059 128.253906 L 1075.308594 169.734375 C 1076.839844 173.507812 1078.089844 177.371094 1079.050781 181.332031 C 1079.75 179.351562 1080.460938 177.371094 1081.160156 175.394531 C 1081.871094 173.414062 1082.601562 171.464844 1083.371094 169.546875 L 1098.140625 128.253906 C 1098.71875 126.828125 1099.738281 125.65625 1101.210938 124.726562 C 1102.691406 123.738281 1104.289062 123.242188 1106.011719 123.242188 Z M 1130 123.242188 "/>
</g>
</svg>
